<svg xmlns="http://www.w3.org/2000/svg" xmlns:xlink="http://www.w3.org/1999/xlink" width="100" zoomAndPan="magnify" viewBox="0 0 75 74.999997" height="100" preserveAspectRatio="xMidYMid meet" version="1.0"><defs><filter x="0%" y="0%" width="100%" height="100%" id="0b8358307a"><feColorMatrix values="0 0 0 0 1 0 0 0 0 1 0 0 0 0 1 0 0 0 1 0" color-interpolation-filters="sRGB"/></filter><mask id="da36ba39fd"><g filter="url(#0b8358307a)"><rect x="-7.5" width="90" fill="#000000" y="-7.5" height="89.999996" fill-opacity="0.8"/></g></mask><clipPath id="522f84315c"><path d="M 32 55 L 51 55 L 51 72 L 32 72 Z M 32 55 " clip-rule="nonzero"/></clipPath><clipPath id="a67ab10d58"><path d="M 0 7.410156 L 64.832031 0.0273438 L 72.554688 67.839844 L 7.722656 75.222656 Z M 0 7.410156 " clip-rule="nonzero"/></clipPath><clipPath id="3675e2c96a"><path d="M 0 7.410156 L 64.832031 0.0273438 L 72.554688 67.839844 L 7.722656 75.222656 Z M 0 7.410156 " clip-rule="nonzero"/></clipPath><clipPath id="79aa7bb1fd"><path d="M 33 58 L 51 58 L 51 63 L 33 63 Z M 33 58 " clip-rule="nonzero"/></clipPath><clipPath id="d2d9cb3b7b"><path d="M 0 7.410156 L 64.832031 0.0273438 L 72.554688 67.839844 L 7.722656 75.222656 Z M 0 7.410156 " clip-rule="nonzero"/></clipPath><clipPath id="61976bc31f"><path d="M 0 7.410156 L 64.832031 0.0273438 L 72.554688 67.839844 L 7.722656 75.222656 Z M 0 7.410156 " clip-rule="nonzero"/></clipPath><clipPath id="768f01aa80"><path d="M 36 61 L 51 61 L 51 65 L 36 65 Z M 36 61 " clip-rule="nonzero"/></clipPath><clipPath id="49659372b4"><path d="M 0 7.410156 L 64.832031 0.0273438 L 72.554688 67.839844 L 7.722656 75.222656 Z M 0 7.410156 " clip-rule="nonzero"/></clipPath><clipPath id="e305e876f5"><path d="M 0 7.410156 L 64.832031 0.0273438 L 72.554688 67.839844 L 7.722656 75.222656 Z M 0 7.410156 " clip-rule="nonzero"/></clipPath><clipPath id="37246a6634"><path d="M 40 64 L 51 64 L 51 67 L 40 67 Z M 40 64 " clip-rule="nonzero"/></clipPath><clipPath id="c605cc55d4"><path d="M 0 7.410156 L 64.832031 0.0273438 L 72.554688 67.839844 L 7.722656 75.222656 Z M 0 7.410156 " clip-rule="nonzero"/></clipPath><clipPath id="b7c46cdb17"><path d="M 0 7.410156 L 64.832031 0.0273438 L 72.554688 67.839844 L 7.722656 75.222656 Z M 0 7.410156 " clip-rule="nonzero"/></clipPath><clipPath id="ce97bade8d"><path d="M 21 19 L 54 19 L 54 58 L 21 58 Z M 21 19 " clip-rule="nonzero"/></clipPath><clipPath id="4dedd3a39b"><path d="M 0 7.410156 L 64.832031 0.0273438 L 72.554688 67.839844 L 7.722656 75.222656 Z M 0 7.410156 " clip-rule="nonzero"/></clipPath><clipPath id="c420e25528"><path d="M 0 7.410156 L 64.832031 0.0273438 L 72.554688 67.839844 L 7.722656 75.222656 Z M 0 7.410156 " clip-rule="nonzero"/></clipPath><clipPath id="3ffb17770a"><path d="M 32 39 L 47 39 L 47 57 L 32 57 Z M 32 39 " clip-rule="nonzero"/></clipPath><clipPath id="069388c00a"><path d="M 0 7.410156 L 64.832031 0.0273438 L 72.554688 67.839844 L 7.722656 75.222656 Z M 0 7.410156 " clip-rule="nonzero"/></clipPath><clipPath id="29f3a8430c"><path d="M 0 7.410156 L 64.832031 0.0273438 L 72.554688 67.839844 L 7.722656 75.222656 Z M 0 7.410156 " clip-rule="nonzero"/></clipPath><clipPath id="df49b78fb0"><path d="M 60 37 L 70 37 L 70 43 L 60 43 Z M 60 37 " clip-rule="nonzero"/></clipPath><clipPath id="118a2ba908"><path d="M 0 7.410156 L 64.832031 0.0273438 L 72.554688 67.839844 L 7.722656 75.222656 Z M 0 7.410156 " clip-rule="nonzero"/></clipPath><clipPath id="5d9b66372b"><path d="M 0 7.410156 L 64.832031 0.0273438 L 72.554688 67.839844 L 7.722656 75.222656 Z M 0 7.410156 " clip-rule="nonzero"/></clipPath><clipPath id="69a1d2492e"><path d="M 44 4 L 50 4 L 50 13 L 44 13 Z M 44 4 " clip-rule="nonzero"/></clipPath><clipPath id="1a344dbb08"><path d="M 0 7.410156 L 64.832031 0.0273438 L 72.554688 67.839844 L 7.722656 75.222656 Z M 0 7.410156 " clip-rule="nonzero"/></clipPath><clipPath id="a3a3289215"><path d="M 0 7.410156 L 64.832031 0.0273438 L 72.554688 67.839844 L 7.722656 75.222656 Z M 0 7.410156 " clip-rule="nonzero"/></clipPath><clipPath id="5858894006"><path d="M 23 4 L 30 4 L 30 13 L 23 13 Z M 23 4 " clip-rule="nonzero"/></clipPath><clipPath id="5cd358e014"><path d="M 0 7.410156 L 64.832031 0.0273438 L 72.554688 67.839844 L 7.722656 75.222656 Z M 0 7.410156 " clip-rule="nonzero"/></clipPath><clipPath id="89f9051e4f"><path d="M 0 7.410156 L 64.832031 0.0273438 L 72.554688 67.839844 L 7.722656 75.222656 Z M 0 7.410156 " clip-rule="nonzero"/></clipPath><clipPath id="0b68a307ed"><path d="M 58 16 L 67 16 L 67 22 L 58 22 Z M 58 16 " clip-rule="nonzero"/></clipPath><clipPath id="2437e05d4c"><path d="M 0 7.410156 L 64.832031 0.0273438 L 72.554688 67.839844 L 7.722656 75.222656 Z M 0 7.410156 " clip-rule="nonzero"/></clipPath><clipPath id="598de868bf"><path d="M 0 7.410156 L 64.832031 0.0273438 L 72.554688 67.839844 L 7.722656 75.222656 Z M 0 7.410156 " clip-rule="nonzero"/></clipPath><clipPath id="f620296bf6"><path d="M 8 16 L 18 16 L 18 22 L 8 22 Z M 8 16 " clip-rule="nonzero"/></clipPath><clipPath id="1a07bf65cf"><path d="M 0 7.410156 L 64.832031 0.0273438 L 72.554688 67.839844 L 7.722656 75.222656 Z M 0 7.410156 " clip-rule="nonzero"/></clipPath><clipPath id="c647b9730d"><path d="M 0 7.410156 L 64.832031 0.0273438 L 72.554688 67.839844 L 7.722656 75.222656 Z M 0 7.410156 " clip-rule="nonzero"/></clipPath><clipPath id="de39b9b790"><path d="M 3 32 L 14 32 L 14 37 L 3 37 Z M 3 32 " clip-rule="nonzero"/></clipPath><clipPath id="4bcc377c39"><path d="M 0 7.410156 L 64.832031 0.0273438 L 72.554688 67.839844 L 7.722656 75.222656 Z M 0 7.410156 " clip-rule="nonzero"/></clipPath><clipPath id="270c0469b8"><path d="M 0 7.410156 L 64.832031 0.0273438 L 72.554688 67.839844 L 7.722656 75.222656 Z M 0 7.410156 " clip-rule="nonzero"/></clipPath><clipPath id="e082ff7ea9"><path d="M 11 46 L 19 46 L 19 54 L 11 54 Z M 11 46 " clip-rule="nonzero"/></clipPath><clipPath id="3e01d78183"><path d="M 0 7.410156 L 64.832031 0.0273438 L 72.554688 67.839844 L 7.722656 75.222656 Z M 0 7.410156 " clip-rule="nonzero"/></clipPath><clipPath id="4b4e2443b6"><path d="M 0 7.410156 L 64.832031 0.0273438 L 72.554688 67.839844 L 7.722656 75.222656 Z M 0 7.410156 " clip-rule="nonzero"/></clipPath><clipPath id="7064ceb98f"><rect x="0" width="73" y="0" height="75"/></clipPath></defs><g mask="url(#da36ba39fd)"><g transform="matrix(1, 0, 0, 1, 0.000000000000000028, -0.000000000000001893)"><g clip-path="url(#7064ceb98f)"><g clip-path="url(#522f84315c)"><g clip-path="url(#a67ab10d58)"><g clip-path="url(#3675e2c96a)"><path fill="#ffd49a" d="M 43.378906 70.925781 C 41.667969 71.121094 38.382812 71.269531 36.382812 70.59375 C 35.171875 70.183594 34.246094 67.277344 32.972656 59.871094 C 32.882812 59.335938 33 58.839844 33.324219 58.386719 C 34.152344 57.242188 36.246094 56.496094 40.316406 55.886719 C 44.371094 55.28125 49.371094 55.0625 50.144531 57.441406 C 50.5625 58.730469 50.511719 62.957031 50.417969 67.539062 L 50.402344 68.292969 C 50.390625 68.988281 49.894531 69.757812 44.179688 70.8125 C 43.988281 70.847656 43.710938 70.886719 43.378906 70.925781 Z M 41.894531 56.851562 C 41.449219 56.902344 40.980469 56.964844 40.492188 57.035156 C 39.171875 57.234375 35.164062 57.828125 34.265625 59.066406 C 34.128906 59.257812 34.082031 59.449219 34.121094 59.667969 C 35.515625 67.769531 36.375 69.300781 36.761719 69.488281 C 38.8125 70.183594 42.699219 69.898438 43.972656 69.664062 C 48.191406 68.886719 49.074219 68.324219 49.242188 68.167969 L 49.257812 67.515625 C 49.320312 64.539062 49.433594 59.007812 49.039062 57.796875 C 48.753906 56.917969 46.433594 56.332031 41.894531 56.851562 Z M 40.40625 56.460938 Z M 40.40625 56.460938 " fill-opacity="1" fill-rule="nonzero"/></g></g></g><g clip-path="url(#79aa7bb1fd)"><g clip-path="url(#d2d9cb3b7b)"><g clip-path="url(#61976bc31f)"><path fill="#ffd49a" d="M 33.976562 62.398438 C 33.765625 62.421875 33.546875 62.328125 33.425781 62.136719 C 33.25 61.867188 33.324219 61.507812 33.59375 61.332031 C 39.144531 57.707031 49.082031 58.492188 49.503906 58.527344 C 49.824219 58.554688 50.058594 58.835938 50.03125 59.152344 C 50.003906 59.472656 49.722656 59.710938 49.40625 59.683594 C 49.308594 59.675781 39.445312 58.898438 34.226562 62.304688 C 34.148438 62.359375 34.0625 62.386719 33.976562 62.398438 Z M 33.976562 62.398438 " fill-opacity="1" fill-rule="nonzero"/></g></g></g><g clip-path="url(#768f01aa80)"><g clip-path="url(#49659372b4)"><g clip-path="url(#e305e876f5)"><path fill="#ffd49a" d="M 36.914062 64.542969 C 36.675781 64.570312 36.433594 64.445312 36.324219 64.214844 C 36.1875 63.925781 36.308594 63.578125 36.601562 63.441406 C 41.75 60.980469 49.488281 61.40625 49.820312 61.425781 C 50.140625 61.445312 50.382812 61.71875 50.367188 62.039062 C 50.347656 62.359375 50.070312 62.605469 49.753906 62.585938 C 49.671875 62.582031 41.980469 62.160156 37.105469 64.488281 C 37.039062 64.515625 36.976562 64.535156 36.914062 64.542969 Z M 36.914062 64.542969 " fill-opacity="1" fill-rule="nonzero"/></g></g></g><g clip-path="url(#37246a6634)"><g clip-path="url(#c605cc55d4)"><g clip-path="url(#b7c46cdb17)"><path fill="#ffd49a" d="M 49.949219 65.589844 C 49.894531 65.597656 49.835938 65.597656 49.777344 65.585938 C 49.710938 65.574219 45.777344 64.878906 40.90625 66.316406 C 40.597656 66.40625 40.273438 66.234375 40.179688 65.925781 C 40.089844 65.617188 40.265625 65.292969 40.574219 65.203125 C 45.746094 63.675781 49.816406 64.410156 49.988281 64.445312 C 50.304688 64.503906 50.515625 64.808594 50.453125 65.125 C 50.40625 65.378906 50.195312 65.5625 49.949219 65.589844 Z M 49.949219 65.589844 " fill-opacity="1" fill-rule="nonzero"/></g></g></g><g clip-path="url(#ce97bade8d)"><g clip-path="url(#4dedd3a39b)"><g clip-path="url(#c420e25528)"><path fill="#ffd49a" d="M 47.011719 56.355469 C 45.761719 53.429688 46.75 50.210938 47.796875 48.023438 C 48.320312 46.925781 48.945312 45.875 49.546875 44.859375 C 50.300781 43.585938 51.078125 42.269531 51.644531 40.898438 C 52.941406 37.746094 53.15625 34.203125 52.242188 30.917969 C 51.464844 28.128906 49.875 25.601562 47.761719 23.796875 C 44.339844 20.882812 39.316406 19.679688 34.316406 20.582031 C 31.957031 21.007812 28.609375 22.074219 26.082031 24.730469 C 23.632812 27.304688 22.367188 31.101562 22.695312 34.886719 C 23.007812 38.445312 24.65625 41.957031 27.347656 44.769531 C 28.132812 45.59375 29.015625 46.363281 29.867188 47.109375 C 30.929688 48.042969 32.03125 49.003906 32.988281 50.097656 C 35.109375 52.519531 36.050781 55.273438 35.5625 57.652344 L 34.421875 57.417969 C 34.839844 55.398438 33.996094 53.011719 32.117188 50.863281 C 31.207031 49.828125 30.136719 48.890625 29.101562 47.988281 C 28.230469 47.222656 27.328125 46.4375 26.503906 45.574219 C 23.636719 42.570312 21.871094 38.8125 21.539062 34.988281 C 21.183594 30.875 22.566406 26.742188 25.246094 23.929688 C 27.992188 21.042969 31.582031 19.894531 34.113281 19.4375 C 39.453125 18.476562 44.839844 19.773438 48.523438 22.914062 C 50.808594 24.863281 52.53125 27.597656 53.367188 30.605469 C 54.351562 34.140625 54.121094 37.953125 52.722656 41.34375 C 52.125 42.789062 51.328125 44.140625 50.550781 45.449219 C 49.960938 46.449219 49.351562 47.476562 48.847656 48.527344 C 47.902344 50.492188 47.003906 53.371094 48.082031 55.898438 Z M 47.011719 56.355469 " fill-opacity="1" fill-rule="nonzero"/></g></g></g><g clip-path="url(#3ffb17770a)"><g clip-path="url(#069388c00a)"><g clip-path="url(#29f3a8430c)"><path fill="#ffd49a" d="M 42.65625 56.628906 C 41.660156 54.113281 41.363281 49.40625 42.28125 46.214844 C 41.621094 46.175781 41.003906 46.054688 40.542969 45.855469 C 40.46875 45.824219 40.398438 45.789062 40.332031 45.757812 C 39.535156 46.296875 38.585938 46.652344 37.570312 46.769531 C 37.558594 46.769531 37.550781 46.769531 37.539062 46.773438 C 38.890625 49.722656 39.480469 53.183594 39.253906 56.925781 L 38.09375 56.855469 C 38.316406 53.105469 37.683594 49.667969 36.257812 46.789062 C 35.101562 46.6875 34.015625 46.269531 33.160156 45.578125 C 32.863281 45.339844 32.472656 44.960938 32.433594 44.398438 C 32.40625 44 32.582031 43.617188 32.917969 43.351562 C 33.308594 43.035156 33.871094 42.917969 34.347656 43.058594 C 35.015625 43.253906 35.855469 43.863281 36.222656 44.410156 C 36.488281 44.8125 36.738281 45.222656 36.96875 45.648438 C 37.125 45.644531 37.273438 45.628906 37.425781 45.613281 C 38.066406 45.539062 38.675781 45.351562 39.214844 45.070312 C 38.382812 44.40625 37.851562 43.554688 37.722656 42.644531 C 37.601562 41.769531 37.972656 40.800781 38.675781 40.175781 C 39.269531 39.644531 40.007812 39.449219 40.699219 39.628906 C 41.6875 39.886719 42.425781 40.847656 42.496094 41.972656 C 42.5625 43.074219 42.03125 44.007812 41.574219 44.59375 C 41.492188 44.699219 41.40625 44.800781 41.316406 44.902344 C 41.703125 45.007812 42.1875 45.0625 42.695312 45.0625 C 42.957031 44.476562 43.28125 43.984375 43.664062 43.617188 C 44.398438 42.921875 45.292969 42.804688 45.855469 42.996094 C 46.261719 43.132812 46.535156 43.445312 46.59375 43.824219 C 46.683594 44.425781 46.441406 44.984375 45.910156 45.390625 C 45.335938 45.835938 44.445312 46.09375 43.507812 46.1875 C 42.609375 48.941406 42.722656 53.652344 43.730469 56.199219 Z M 45.234375 44.078125 C 45.027344 44.101562 44.742188 44.199219 44.472656 44.457031 C 44.335938 44.585938 44.210938 44.738281 44.09375 44.921875 C 44.542969 44.820312 44.941406 44.671875 45.203125 44.46875 C 45.410156 44.308594 45.453125 44.175781 45.457031 44.082031 C 45.40625 44.074219 45.328125 44.066406 45.234375 44.078125 Z M 33.878906 44.164062 C 33.792969 44.175781 33.707031 44.207031 33.640625 44.253906 C 33.613281 44.28125 33.589844 44.308594 33.589844 44.320312 C 33.59375 44.347656 33.621094 44.457031 33.886719 44.671875 C 34.359375 45.050781 34.921875 45.328125 35.535156 45.488281 C 35.445312 45.339844 35.351562 45.199219 35.253906 45.054688 C 35.035156 44.726562 34.425781 44.292969 34.019531 44.171875 C 33.976562 44.160156 33.929688 44.160156 33.878906 44.164062 Z M 40.101562 40.730469 C 39.816406 40.761719 39.585938 40.925781 39.457031 41.042969 C 39.042969 41.410156 38.8125 41.992188 38.882812 42.484375 C 38.980469 43.191406 39.46875 43.859375 40.222656 44.363281 C 40.386719 44.214844 40.53125 44.050781 40.664062 43.878906 C 41.136719 43.269531 41.378906 42.613281 41.34375 42.039062 C 41.304688 41.429688 40.90625 40.878906 40.417969 40.75 C 40.304688 40.722656 40.199219 40.71875 40.101562 40.730469 Z M 40.101562 40.730469 " fill-opacity="1" fill-rule="nonzero"/></g></g></g><g clip-path="url(#df49b78fb0)"><g clip-path="url(#118a2ba908)"><g clip-path="url(#5d9b66372b)"><path fill="#ffd49a" d="M 61.277344 37.792969 C 61.597656 37.445312 62.09375 37.496094 62.511719 37.574219 C 64.515625 37.949219 66.519531 38.324219 68.523438 38.699219 C 68.890625 38.765625 69.292969 38.863281 69.472656 39.21875 C 69.554688 39.375 69.578125 39.5625 69.585938 39.746094 C 69.648438 40.769531 69.140625 42.601562 67.132812 42.265625 C 66.273438 42.125 59.03125 40.234375 61.277344 37.792969 Z M 61.277344 37.792969 " fill-opacity="1" fill-rule="nonzero"/></g></g></g><g clip-path="url(#69a1d2492e)"><g clip-path="url(#1a344dbb08)"><g clip-path="url(#a3a3289215)"><path fill="#ffd49a" d="M 44.261719 12.488281 C 43.972656 12.175781 44.050781 11.6875 44.144531 11.269531 C 44.597656 9.285156 45.050781 7.300781 45.5 5.3125 C 45.582031 4.953125 45.691406 4.550781 46.015625 4.367188 C 46.15625 4.289062 46.324219 4.261719 46.484375 4.25 C 47.382812 4.171875 49.855469 5.34375 49.066406 6.953125 C 48.6875 7.738281 46.265625 14.679688 44.261719 12.488281 Z M 44.261719 12.488281 " fill-opacity="1" fill-rule="nonzero"/></g></g></g><g clip-path="url(#5858894006)"><g clip-path="url(#5cd358e014)"><g clip-path="url(#89f9051e4f)"><path fill="#ffd49a" d="M 29.054688 10.476562 C 29.144531 10.9375 29.230469 11.40625 29.148438 11.867188 C 29.0625 12.324219 28.765625 12.777344 28.320312 12.90625 C 27.914062 13.027344 27.464844 12.863281 27.144531 12.585938 C 26.820312 12.308594 26.601562 11.9375 26.386719 11.570312 C 25.730469 10.453125 25.078125 9.335938 24.425781 8.214844 C 23.941406 7.394531 23.457031 6.359375 23.945312 5.539062 C 24.183594 5.132812 24.617188 4.882812 25.058594 4.722656 C 25.648438 4.503906 26.3125 4.414062 26.90625 4.617188 C 28.660156 5.21875 28.757812 8.964844 29.054688 10.476562 Z M 29.054688 10.476562 " fill-opacity="1" fill-rule="nonzero"/></g></g></g><g clip-path="url(#0b68a307ed)"><g clip-path="url(#2437e05d4c)"><g clip-path="url(#598de868bf)"><path fill="#ffd49a" d="M 60.621094 21.316406 C 60.179688 21.421875 59.730469 21.535156 59.261719 21.5 C 58.796875 21.46875 58.3125 21.257812 58.117188 20.902344 C 57.941406 20.578125 58.039062 20.195312 58.265625 19.910156 C 58.492188 19.625 58.828125 19.414062 59.160156 19.210938 C 60.167969 18.585938 61.175781 17.957031 62.191406 17.332031 C 62.933594 16.871094 63.882812 16.390625 64.761719 16.726562 C 65.199219 16.890625 65.507812 17.226562 65.730469 17.578125 C 66.03125 18.046875 66.214844 18.582031 66.097656 19.085938 C 65.757812 20.570312 62.074219 20.953125 60.621094 21.316406 Z M 60.621094 21.316406 " fill-opacity="1" fill-rule="nonzero"/></g></g></g><g clip-path="url(#f620296bf6)"><g clip-path="url(#1a07bf65cf)"><g clip-path="url(#c647b9730d)"><path fill="#ffd49a" d="M 17.40625 20.949219 C 17.140625 21.792969 15.832031 21.496094 14.996094 21.40625 C 13.210938 21.214844 11.425781 20.917969 9.65625 20.523438 C 9.222656 20.425781 8.703125 20.242188 8.574219 19.738281 C 8.5 19.453125 8.578125 19.152344 8.667969 18.878906 C 9.320312 16.820312 9.914062 16.335938 11.804688 16.996094 C 13.472656 17.582031 17.945312 19.261719 17.40625 20.949219 Z M 17.40625 20.949219 " fill-opacity="1" fill-rule="nonzero"/></g></g></g><g clip-path="url(#de39b9b790)"><g clip-path="url(#4bcc377c39)"><g clip-path="url(#270c0469b8)"><path fill="#ffd49a" d="M 13.25 34.019531 C 13.339844 34.824219 9.921875 35.828125 7.871094 36.167969 C 7.132812 36.289062 5.117188 36.582031 4.480469 36.1875 C 3.839844 35.789062 2.976562 33.507812 3.730469 32.960938 C 5.109375 31.957031 12.917969 31.070312 13.25 34.019531 Z M 13.25 34.019531 " fill-opacity="1" fill-rule="nonzero"/></g></g></g><g clip-path="url(#e082ff7ea9)"><g clip-path="url(#3e01d78183)"><g clip-path="url(#4b4e2443b6)"><path fill="#ffd49a" d="M 16.421875 51.097656 C 15.941406 51.660156 15.457031 52.226562 14.84375 52.636719 C 14.234375 53.050781 13.15625 53.527344 12.398438 52.835938 C 11.789062 52.28125 11.613281 51.265625 12.085938 50.695312 C 13.648438 48.800781 15.566406 47.535156 17.234375 47.066406 C 20.695312 46.097656 17.183594 50.214844 16.421875 51.097656 Z M 16.421875 51.097656 " fill-opacity="1" fill-rule="nonzero"/></g></g></g></g></g></g></svg>